<svg width="100" height="100" viewBox="0 0 100 100" fill="none" xmlns="http://www.w3.org/2000/svg">
<path d="M39.8438 71.0938C32.8125 79.6875 27.3438 85.9375 26.5625 100C33.5938 100 77.3438 100 77.3438 100C75.8594 94.7656 69.6094 87.9688 63.2812 79.6875L43.75 67.9688L39.8438 71.0938Z" fill="#BDE5EC"/>
<path d="M77.0312 19.2187C79.9219 27.0312 75.1562 32.8125 74.2187 34.4531C73.2812 36.0938 52.7344 50.4687 52.4219 59.1406C52.1094 67.8125 53.9844 68.4375 53.9844 68.4375C53.9844 68.4375 48.5156 69.8438 44.6875 73.5156C31.875 85.8594 22.0312 76.875 17.9688 69.6094C25 57.1094 11.9531 30.1562 29.0625 13.0469C43.4375 -1.40625 70.2344 0.468748 77.0312 19.2187Z" fill="#892E1D"/>
<path d="M62.1094 59.6875C62.1094 59.6875 61.4062 76.5625 63.2812 79.6875C50.7813 83.5938 44.6875 73.4375 44.6875 73.4375C44.6875 73.4375 49.2188 69.5313 43.9844 43.4375C60.2344 50.9375 62.1094 59.6875 62.1094 59.6875Z" fill="#FFC298"/>
<path d="M61.9532 66.7969C61.9532 62.8906 62.1094 59.6875 62.1094 59.6875C62.1094 59.6875 48.125 49.8437 48.4375 52.8125C48.9844 58.75 53.6719 64.1406 61.9532 66.7969Z" fill="#E1927A"/>
<path d="M73.2812 23.5156C75.1562 28.5156 73.6718 30.3125 74.9218 36.6406C75.7812 41.25 77.0312 46.25 78.9062 47.8125C77.0312 50.9375 73.2812 50.9375 73.2812 50.9375C73.2812 50.9375 73.125 65.625 62.1094 63.4375C46.5625 60.3125 42.8125 44.7656 42.8125 44.7656C42.8125 44.7656 37.8125 49.1406 35.9375 44.1406C34.0625 39.1406 38.4375 31.0938 43.4375 37.8906C44.0625 29.7656 51.25 26.3281 55.8593 23.5938C68.3593 16.0938 71.4844 18.5938 73.2812 23.5156Z" fill="#FFC298"/>
<path d="M73.2812 23.5156C75.1562 28.5156 73.6718 30.3125 74.9218 36.6406C75.7812 41.25 77.0312 46.25 78.9062 47.8125C77.0312 50.9375 73.2812 50.9375 73.2812 50.9375C73.2812 50.9375 73.125 65.625 62.1094 63.4375C46.5625 60.3125 42.8125 44.7656 42.8125 44.7656C42.8125 44.7656 37.8125 49.1406 35.9375 44.1406C34.0625 39.1406 38.4375 31.0938 43.4375 37.8906C44.0625 29.7656 51.25 26.3281 55.8593 23.5938C68.3593 16.0938 71.4844 18.5938 73.2812 23.5156Z" fill="#FFC298"/>
<path d="M40.9375 32.2656C42.2657 34.0625 43.4375 37.8906 43.4375 37.8906C43.4375 37.8906 61.4844 35.3906 62.7344 23.5937C65.2344 25.4687 65.2344 29.8437 65.2344 29.8437C65.2344 29.8437 72.1094 29.2187 73.3594 23.5937C77.6563 4.0625 45.9375 11.7969 40.9375 17.3437C35.9375 22.8906 39.0625 29.7656 40.9375 32.2656Z" fill="#892E1D"/>
<path d="M40.2344 38.5156C40.1562 39.0625 40 39.4531 40 39.8437C39.9219 40.2344 39.9219 40.5469 39.8438 40.8594C39.8438 41.1719 39.8438 41.4844 39.8438 41.875C39.8438 42.1094 39.9219 42.2656 39.9219 42.5C39.9219 42.7344 40 42.9687 40 43.2812V43.3594C40 43.5937 39.7656 43.8281 39.5312 43.8281C39.4531 43.8281 39.4531 43.8281 39.375 43.8281C39.0625 43.75 38.8281 43.5937 38.5938 43.3594C38.3594 43.125 38.125 42.9687 37.9687 42.6562C37.6562 42.0312 37.5 41.4062 37.5 40.7031C37.5 40 37.8125 39.375 38.2031 38.8281C38.5938 38.3594 39.1406 37.9687 39.7656 37.8906C40 37.8125 40.2344 37.9687 40.2344 38.2031C40.2344 38.2812 40.2344 38.2812 40.2344 38.3594V38.5156Z" fill="#E1927A"/>
<path d="M73.4375 100C77.7522 100 81.25 96.5022 81.25 92.1875C81.25 87.8728 77.7522 84.375 73.4375 84.375C69.1228 84.375 65.625 87.8728 65.625 92.1875C65.625 96.5022 69.1228 100 73.4375 100Z" fill="#ECC6C3"/>
<path d="M73.4375 96.0938C75.5949 96.0938 77.3438 94.3449 77.3438 92.1875C77.3438 90.0301 75.5949 88.2812 73.4375 88.2812C71.2801 88.2812 69.5312 90.0301 69.5312 92.1875C69.5312 94.3449 71.2801 96.0938 73.4375 96.0938Z" fill="#E44450"/>
<path d="M34.0625 91.7969C38.3772 91.7969 41.875 88.2991 41.875 83.9844C41.875 79.6697 38.3772 76.1719 34.0625 76.1719C29.7478 76.1719 26.25 79.6697 26.25 83.9844C26.25 88.2991 29.7478 91.7969 34.0625 91.7969Z" fill="#ECC6C3"/>
<path d="M34.0625 87.8906C36.2199 87.8906 37.9688 86.1417 37.9688 83.9844C37.9688 81.827 36.2199 80.0781 34.0625 80.0781C31.9051 80.0781 30.1562 81.827 30.1562 83.9844C30.1562 86.1417 31.9051 87.8906 34.0625 87.8906Z" fill="#E44450"/>
<path d="M81.1719 88.3594L86.6406 84.7656L86.25 86.1719L84.6094 84.4531L83.8281 83.75L84.9219 82.6562L88.6719 78.75L91.3281 82.6562L86.4062 84.7656L86.7187 82.9687L87.7344 85.0781L88.2812 86.1719L87.4219 86.4844L81.1719 88.3594Z" fill="#E44450"/>
<path d="M82.6562 92.6563L89.1406 92.2656L88.125 93.2813L87.5781 91.0156L87.2656 90L88.75 89.5313L93.9062 88.0469L94.2969 92.7344L88.9844 92.1875L90.1562 90.7031L90 93.125L89.9219 94.2969L88.9844 94.1406L82.6562 92.6563Z" fill="#E44450"/>
<path d="M24.6094 87.2656L18.8281 90.3125L19.2969 88.9844L20.7813 90.8594L21.4062 91.6406L20.3125 92.5781L16.1719 96.0938L13.9062 92.0313L18.9844 90.3125L18.5156 92.1094L17.6563 89.9219L17.2656 88.75L18.2031 88.5938L24.6094 87.2656Z" fill="#E44450"/>
<path d="M23.5156 82.8906L16.9531 82.5781L18.0469 81.7187L18.4375 84.0625L18.5938 85.0781L17.1094 85.3906L11.875 86.3281V81.6406L17.1875 82.7344L15.8594 84.0625L16.25 81.7187L16.4063 80.4688L17.3438 80.7813L23.5156 82.8906Z" fill="#E44450"/>
</svg>
