<?xml version="1.0" encoding="iso-8859-1"?>
<!-- Generator: Adobe Illustrator 19.0.0, SVG Export Plug-In . SVG Version: 6.00 Build 0)  -->
<svg version="1.1" id="Layer_1" xmlns="http://www.w3.org/2000/svg" xmlns:xlink="http://www.w3.org/1999/xlink" x="0px" y="0px"
	 viewBox="0 0 512.002 512.002" style="enable-background:new 0 0 512.002 512.002;" xml:space="preserve">
<path style="fill:#FF7876;" d="M452.603,178.111h-96.136c-12.468,0-22.575-10.108-22.575-22.575V59.399
	c0-12.468-10.108-22.575-22.575-22.575H200.685c-12.468,0-22.575,10.108-22.575,22.575v96.136c0,12.468-10.108,22.575-22.575,22.575
	H59.399c-12.468,0-22.575,10.108-22.575,22.575v110.631c0,12.468,10.108,22.575,22.575,22.575h96.136
	c12.468,0,22.575,10.108,22.575,22.575v96.136c0,12.468,10.108,22.575,22.575,22.575h110.631c12.468,0,22.575-10.108,22.575-22.575
	v-96.136c0-12.468,10.108-22.575,22.575-22.575h96.136c12.468,0,22.575-10.108,22.575-22.575V200.686
	C475.178,188.218,465.07,178.111,452.603,178.111z"/>
<path style="fill:#58595B;" d="M500.712,258.574h-14.248v-57.888c0-18.673-15.192-33.863-33.863-33.863h-96.136
	c-6.225,0-11.288-5.063-11.288-11.288V59.399c0-18.673-15.192-33.863-33.863-33.863H200.684c-18.671,0-33.863,15.19-33.863,33.863
	v96.136c0,6.225-5.063,11.288-11.288,11.288H59.399c-18.671,0-33.863,15.19-33.863,33.863v57.888H11.288
	C5.054,258.574,0,263.627,0,269.861c0,6.234,5.054,11.288,11.288,11.288h14.248v30.167c0,18.673,15.192,33.863,33.863,33.863h96.136
	c6.225,0,11.288,5.063,11.288,11.288v96.136c0,18.673,15.192,33.863,33.863,33.863h110.631c18.671,0,33.863-15.19,33.863-33.863
	v-96.136c0-6.225,5.063-11.288,11.288-11.288h96.136c18.671,0,33.863-15.19,33.863-33.863v-30.167h14.248
	c6.234,0,11.288-5.054,11.288-11.288C512,263.627,506.948,258.574,500.712,258.574z M48.111,200.686
	c0-6.225,5.063-11.288,11.288-11.288h96.136c18.671,0,33.863-15.19,33.863-33.863V59.399c0-6.225,5.063-11.288,11.288-11.288
	h110.631c6.225,0,11.288,5.063,11.288,11.288v96.136c0,18.673,15.192,33.863,33.863,33.863h96.136
	c6.225,0,11.288,5.063,11.288,11.288v57.888h-74.909c-2.593,0-5.107,0.892-7.117,2.527l-27.292,22.173l-54.739-77.435
	c-5.168-7.314-16.384-5.955-19.698,2.324l-44.618,111.546l-30.322-112.547c-2.151-7.974-11.857-10.994-18.152-5.713l-68.129,57.126
	H48.111V200.686z M463.891,311.317c0,6.225-5.063,11.288-11.288,11.288h-96.136c-18.671,0-33.863,15.19-33.863,33.863v96.136
	c0,6.225-5.063,11.288-11.288,11.288H200.685c-6.225,0-11.288-5.063-11.288-11.288v-96.136c0-18.673-15.192-33.863-33.863-33.863
	H59.399c-6.225,0-11.288-5.063-11.288-11.288V281.15h74.909c2.653,0,5.221-0.935,7.253-2.638l57.724-48.401l34.528,128.16
	c2.817,10.454,17.351,11.33,21.38,1.255l49.479-123.698l49.72,70.336c3.77,5.335,11.273,6.359,16.335,2.245l33.55-27.257h70.9
	v30.165H463.891z"/>
<g>
</g>
<g>
</g>
<g>
</g>
<g>
</g>
<g>
</g>
<g>
</g>
<g>
</g>
<g>
</g>
<g>
</g>
<g>
</g>
<g>
</g>
<g>
</g>
<g>
</g>
<g>
</g>
<g>
</g>
</svg>
