<?xml version="1.0" encoding="UTF-8" standalone="no"?>
<svg
   xmlns:dc="http://purl.org/dc/elements/1.1/"
   xmlns:cc="http://creativecommons.org/ns#"
   xmlns:rdf="http://www.w3.org/1999/02/22-rdf-syntax-ns#"
   xmlns:svg="http://www.w3.org/2000/svg"
   xmlns="http://www.w3.org/2000/svg"
   xmlns:sodipodi="http://sodipodi.sourceforge.net/DTD/sodipodi-0.dtd"
   xmlns:inkscape="http://www.inkscape.org/namespaces/inkscape"
   width="100"
   height="100"
   viewBox="0 0 100 100"
   fill="none"
   version="1.1"
   id="svg201"
   sodipodi:docname="confusion.svg"
   inkscape:version="1.0beta2 (2b71d25, 2019-12-03)">
  <metadata
     id="metadata205">
    <rdf:RDF>
      <cc:Work
         rdf:about="">
        <dc:format>image/svg+xml</dc:format>
        <dc:type
           rdf:resource="http://purl.org/dc/dcmitype/StillImage" />
      </cc:Work>
    </rdf:RDF>
  </metadata>
  <sodipodi:namedview
     pagecolor="#ffffff"
     bordercolor="#666666"
     inkscape:document-rotation="0"
     borderopacity="1"
     objecttolerance="10"
     gridtolerance="10"
     guidetolerance="10"
     inkscape:pageopacity="0"
     inkscape:pageshadow="2"
     inkscape:window-width="992"
     inkscape:window-height="757"
     id="namedview203"
     showgrid="false"
     inkscape:zoom="4.4516715"
     inkscape:cx="45.990309"
     inkscape:cy="55.829547"
     inkscape:window-x="134"
     inkscape:window-y="23"
     inkscape:window-maximized="0"
     inkscape:current-layer="g194" />
  <g
     clip-path="url(#clip0)"
     id="g194">
    <path
       d="M61.2969 100.548C59.7344 97.6578 58.1719 94.6109 56.6094 90.4703L39.8906 75.0015L35.4375 77.2671C28.5625 82.814 22.9375 90.7046 19.1094 100.548H61.2969Z"
       fill="#BDE5EC"
       id="path172" />
    <path
       d="M82.4688 34.064C83.6406 42.2672 77.8594 46.9547 76.6094 48.3609C75.3594 49.7672 52.3125 59.7672 50.2031 68.1265C48.0938 76.4859 49.8125 77.5015 49.8125 77.5015C49.8125 77.5015 44.0312 77.5015 39.6562 80.5484C28.875 88.2047 21.2969 82.7359 17 75.0015C22.9375 64.3765 16.5312 31.4859 36.7656 18.2047C53.7188 7.11092 79.5781 14.3765 82.4688 34.064Z"
       fill="#892E1D"
       id="path174" />
    <path
       d="M59.5781 70.6265C59.5781 70.6265 55.4375 87.0328 56.6094 90.4703C43.5625 91.7203 39.9688 82.5797 39.7344 80.5484C43.0938 77.1109 44.6562 69.2984 45.2031 51.0953C59.5 61.7203 59.5781 70.6265 59.5781 70.6265Z"
       fill="#FFC298"
       id="path176" />
    <path
       d="M47.5469 61.1734C46.9219 66.9546 50.2031 75.5484 57.4688 79.9234C58.4063 75.1578 59.5 70.6265 59.5 70.6265C59.5 70.6265 47.8594 58.2046 47.5469 61.1734Z"
       fill="#E1927A"
       id="path178" />
    <path
       d="M77.9375 37.5797C78.7187 42.814 77 44.2984 76.8437 50.7828C76.7656 55.4703 76.1406 61.3297 77.625 63.2047C75.9843 65.4703 72.3125 64.3765 72.3125 64.3765C72.3125 64.3765 70.5937 70.314 68.875 72.5015C66.7656 74.9234 63.1718 77.4234 58.7187 75.5484C44.1093 69.2984 43.7187 52.0328 43.7187 52.0328C43.7187 52.0328 37.9375 55.314 37.1562 50.0015C36.375 44.689 42.2343 37.7359 45.75 45.4703C48.0156 37.6578 55.75 35.7828 60.9062 33.9859C74.5781 29.2203 77.0781 32.3453 77.9375 37.5797Z"
       fill="#FFC298"
       id="path180" />
    <path
       d="M44.4219 39.5328C45.3594 41.564 45.75 45.5484 45.75 45.5484C45.75 45.5484 63.9531 46.7984 67.5469 35.4703C69.5781 37.814 68.7187 42.1109 68.7187 42.1109C68.7187 42.1109 76.8437 44.4547 79.2656 39.2203C87.4687 21.0172 53.5625 20.4703 47.5469 24.9234C41.5312 29.3765 43.0937 36.6422 44.4219 39.5328Z"
       fill="#892E1D"
       id="path182" />
    <path
       d="M42.4688 45.4703C42.3125 45.939 42.0782 46.3297 41.9219 46.7203C41.7657 47.1109 41.6875 47.3453 41.6094 47.6578C41.5313 47.9703 41.4532 48.2828 41.4532 48.6734C41.375 48.8297 41.4532 49.064 41.375 49.2984C41.375 49.5328 41.375 49.7672 41.2969 50.0797V50.1578C41.2188 50.3922 40.9844 50.5484 40.75 50.4703C40.6719 50.4703 40.6719 50.4703 40.5938 50.3922C40.3594 50.2359 40.125 50.0015 39.8907 49.7672C39.7344 49.5328 39.5 49.2984 39.4219 48.9859C39.1875 48.439 39.1094 47.7359 39.3438 47.0328C39.5 46.3297 39.8907 45.7828 40.3594 45.3922C40.8282 45.0015 41.4532 44.7672 42.1563 44.7672C42.3907 44.7672 42.5469 45.0015 42.5469 45.2359C42.5469 45.314 42.5469 45.314 42.5469 45.3922L42.4688 45.4703Z"
       fill="#E1927A"
       id="path184" />
    <path
       d="m 56.832588,29.202515 c 0.687033,0.416724 -0.222778,1.131703 -0.692623,1.141893 -1.273251,0.02761 -1.846179,-1.471614 -1.591163,-2.52714 0.456163,-1.888089 2.658403,-2.635516 4.361657,-2.040433 2.499593,0.873308 3.443122,3.859441 2.489702,6.196174 -1.270758,3.114497 -5.065293,4.258205 -8.03069,2.938972 -3.73165,-1.660121 -5.077095,-6.273382 -3.388242,-9.865208 2.045426,-4.350182 7.482717,-5.898174 11.699724,-3.837511 4.969597,2.42842 6.72063,8.692828 4.286781,13.534241 -2.809974,5.589603 -9.903457,7.544001 -15.368758,4.736051 -6.210021,-3.190572 -8.368015,-11.114451 -5.18532,-17.203275 3.570502,-6.83074 12.32571,-9.192495 19.037791,-5.63459 7.451682,3.949949 10.017325,13.53717 6.08386,20.872308"
       sodipodi:t0="0"
       sodipodi:argument="-18.304329"
       sodipodi:radius="16.026392"
       sodipodi:revolution="3"
       sodipodi:expansion="1"
       sodipodi:cy="29.202515"
       sodipodi:cx="56.832588"
       id="path28"
       style="fill:none;fill-rule:evenodd;stroke:#bde5ec;opacity:1;stroke-opacity:1;stroke-width:1.5;stroke-miterlimit:4;stroke-dasharray:none"
       sodipodi:type="spiral" />
  </g>
  <defs
     id="defs199">
    <clipPath
       id="clip0">
      <rect
         width="100"
         height="100"
         fill="white"
         id="rect196" />
    </clipPath>
  </defs>
</svg>
