<svg width="100" height="100" viewBox="0 0 100 100" fill="none" xmlns="http://www.w3.org/2000/svg">
<path d="M36.875 68.9062C28.2031 75.8594 21.6406 86.4062 17.9688 100C25.7812 100 66.4062 100 66.4062 100C64.0625 93.75 60.9375 89.8437 58.0469 82.1094L41.3281 66.6406L36.875 68.9062Z" fill="#BDE5EC"/>
<path d="M83.9062 25.7031C85.0781 33.9062 79.2969 38.5938 78.0469 40C76.7969 41.4062 53.75 51.4062 51.6406 59.7656C49.5312 68.125 51.25 69.1406 51.25 69.1406C51.25 69.1406 45.625 69.375 41.0938 72.1875C26.0156 81.6406 18.2031 70.8594 15.7031 62.8906C25.7812 49.2188 17.9688 23.125 38.2031 9.84375C55.1562 -1.25 81.0156 6.01562 83.9062 25.7031Z" fill="#892E1D"/>
<path d="M61.0156 62.2656C61.0156 62.2656 56.875 78.6719 58.0469 82.1094C45 83.3594 41.4063 74.2188 41.1719 72.1875C44.5313 68.75 46.0938 60.9375 46.6406 42.7344C60.9375 53.3594 61.0156 62.2656 61.0156 62.2656Z" fill="#FFC298"/>
<path d="M48.9844 52.8125C48.3594 58.5938 51.6406 67.1875 58.9063 71.5625C59.8438 66.7969 60.9375 62.2656 60.9375 62.2656C60.9375 62.2656 49.2969 49.8438 48.9844 52.8125Z" fill="#E1927A"/>
<path d="M79.375 29.2188C80.1562 34.4531 78.4375 35.9375 78.2812 42.4219C78.2031 47.1094 78.4375 52.2656 79.9218 54.1406C77.4218 56.7969 73.8281 56.0156 73.8281 56.0156C73.8281 56.0156 73.4375 57.9688 72.3437 60.1562C70.3125 60.1562 64.8437 56.25 64.8437 56.25C64.8437 56.25 65.625 61.7188 69.9218 63.9062C67.8125 66.3281 64.6093 69.0625 60.1562 67.1875C45.5468 60.9375 45.1562 43.6719 45.1562 43.6719C45.1562 43.6719 39.375 46.9531 38.5937 41.6406C37.8125 36.3281 43.6718 29.375 47.1875 37.1094C49.4531 29.2969 57.1875 27.4219 62.3437 25.625C76.0156 20.8594 78.5156 23.9844 79.375 29.2188Z" fill="#FFC298"/>
<path d="M45.8594 31.1719C46.7969 33.2031 47.1875 37.1875 47.1875 37.1875C47.1875 37.1875 65.3906 38.4375 68.9844 27.1094C71.0156 29.4531 70.1562 33.75 70.1562 33.75C70.1562 33.75 76.9531 34.5313 79.375 29.2969C87.5781 11.0938 55 12.1094 48.9844 16.5625C42.9687 21.0156 44.5312 28.2813 45.8594 31.1719Z" fill="#892E1D"/>
<path d="M43.9063 37.1094C43.75 37.5781 43.5157 37.9687 43.3594 38.3594C43.2032 38.75 43.125 38.9844 43.0469 39.2969C42.9688 39.6094 42.8907 39.9219 42.8907 40.3125C42.8125 40.4687 42.8907 40.7031 42.8125 40.9375C42.8125 41.1719 42.8125 41.4063 42.7344 41.7188V41.7969C42.6563 42.0313 42.4219 42.1875 42.1875 42.1094C42.1094 42.1094 42.1094 42.1094 42.0313 42.0312C41.7969 41.875 41.5625 41.6406 41.3282 41.4063C41.1719 41.1719 40.9375 40.9375 40.8594 40.625C40.625 40.0781 40.5469 39.375 40.7813 38.6719C40.9375 37.9688 41.3282 37.4219 41.7969 37.0313C42.2657 36.6406 42.8907 36.4062 43.5938 36.4062C43.8282 36.4062 43.9844 36.6406 43.9844 36.875C43.9844 36.9531 43.9844 36.9531 43.9844 37.0313L43.9063 37.1094Z" fill="#E1927A"/>
<path d="M74.2969 63.8281C75.625 64.6875 76.9531 65.4687 78.3594 66.1719L77.3437 67.7344C76.0937 66.7187 75 65.625 73.8281 64.4531L74.2969 63.8281ZM80.7812 67.2656C82.1875 67.8906 83.5938 68.3594 85 68.6719L83.8281 72.1094C82.2656 71.4063 80.8594 70.4688 79.5313 69.5313L80.7812 67.2656Z" fill="#BDE5EC"/>
<path d="M74.6875 62.0313L79.2969 61.7969L79.2188 63.75L74.6094 62.8125L74.6875 62.0313Z" fill="#BDE5EC"/>
<path d="M80.7031 61.6406C82.1875 61.4844 83.75 61.25 85.0781 60.7812L85.625 64.375C83.8281 64.4531 82.2656 64.2187 80.625 63.9844L80.7031 61.6406Z" fill="#BDE5EC"/>
<path d="M73.5937 66.0156L76.6406 69.7656L74.8438 70.7812L72.9688 66.4844L73.5937 66.0156Z" fill="#BDE5EC"/>
<path d="M77.5 70.8594C78.4375 72.1875 79.375 73.5156 80.1562 75.0781L76.7187 76.25C76.4844 74.9219 75.9375 73.4375 75.3906 72.0312L77.5 70.8594Z" fill="#BDE5EC"/>
</svg>
