<svg width="100" height="100" viewBox="0 0 100 100" fill="none" xmlns="http://www.w3.org/2000/svg">
<path d="M46.3281 100C44.7656 97.1094 43.2031 94.0625 41.6406 89.9219L24.9219 74.4531L20.4688 76.7187C13.5938 82.2656 7.96875 90.1562 4.14062 100H46.3281Z" fill="#BDE5EC"/>
<path d="M67.5 33.5156C68.6719 41.7188 62.8906 46.4062 61.6406 47.8125C60.3906 49.2188 37.3438 59.2188 35.2344 67.5781C33.125 75.9375 34.8438 76.9531 34.8438 76.9531C34.8438 76.9531 29.0625 76.9531 24.6875 80C13.9062 87.6562 6.32812 82.1875 2.03125 74.4531C7.96875 63.8281 1.5625 30.9375 21.7969 17.6562C38.75 6.5625 64.6094 13.8281 67.5 33.5156Z" fill="#892E1D"/>
<path d="M44.6094 70.0781C44.6094 70.0781 40.4687 86.4844 41.6406 89.9219C28.5937 91.1719 25 82.0313 24.7656 80C28.125 76.5625 29.6875 68.75 30.2344 50.5469C44.5312 61.1719 44.6094 70.0781 44.6094 70.0781Z" fill="#FFC298"/>
<path d="M32.5781 60.625C31.9531 66.4063 35.2344 75 42.5 79.375C43.4375 74.6094 44.5313 70.0781 44.5313 70.0781C44.5313 70.0781 32.8906 57.6563 32.5781 60.625Z" fill="#E1927A"/>
<path d="M62.9687 37.0313C63.75 42.2656 62.0312 43.75 61.875 50.2344C61.7968 54.9219 61.1718 60.7812 62.6562 62.6562C61.0156 64.9219 57.3437 63.8281 57.3437 63.8281C57.3437 63.8281 55.625 69.7656 53.9062 71.9531C51.7968 74.375 48.2031 76.875 43.75 75C29.1406 68.75 28.75 51.4844 28.75 51.4844C28.75 51.4844 22.9687 54.7656 22.1875 49.4531C21.4062 44.1406 27.2656 37.1875 30.7812 44.9219C33.0468 37.1094 40.7812 35.2344 45.9375 33.4375C59.6093 28.6719 62.1093 31.7969 62.9687 37.0313Z" fill="#FFC298"/>
<path d="M29.4531 38.9844C30.3906 41.0156 30.7812 45 30.7812 45C30.7812 45 48.9844 46.25 52.5781 34.9219C54.6094 37.2656 53.75 41.5625 53.75 41.5625C53.75 41.5625 61.875 43.9062 64.2969 38.6719C72.5 20.4687 38.5937 19.9219 32.5781 24.375C26.5625 28.8281 28.125 36.0938 29.4531 38.9844Z" fill="#892E1D"/>
<path d="M27.5 44.9219C27.3438 45.3906 27.1094 45.7812 26.9532 46.1719C26.7969 46.5625 26.7188 46.7969 26.6407 47.1094C26.5625 47.4219 26.4844 47.7344 26.4844 48.125C26.4063 48.2812 26.4844 48.5156 26.4063 48.75C26.4063 48.9844 26.4063 49.2188 26.3282 49.5313V49.6094C26.25 49.8438 26.0157 50 25.7813 49.9219C25.7032 49.9219 25.7032 49.9219 25.625 49.8438C25.3907 49.6875 25.1563 49.4531 24.9219 49.2188C24.7657 48.9844 24.5313 48.75 24.4532 48.4375C24.2188 47.8906 24.1407 47.1875 24.375 46.4844C24.5313 45.7813 24.9219 45.2344 25.3907 44.8438C25.8594 44.4531 26.4844 44.2188 27.1875 44.2188C27.4219 44.2188 27.5782 44.4531 27.5782 44.6875C27.5782 44.7656 27.5782 44.7656 27.5782 44.8438L27.5 44.9219Z" fill="#E1927A"/>
<path d="M65.3125 6.32812L71.9531 7.10938L65.2344 14.6875L71.0938 15.8594" stroke="#BDE5EC" stroke-width="4" stroke-miterlimit="10"/>
<path d="M76.4844 2.65625L84.7656 3.59375L76.4062 13.125L83.75 14.5312" stroke="#BDE5EC" stroke-width="4" stroke-miterlimit="10"/>
<path d="M94.5312 91.4062H68.75C67.8906 91.4062 67.1875 90.7031 67.1875 89.8438V75.7812C67.1875 74.9219 67.8906 74.2188 68.75 74.2188H94.5312C95.3906 74.2188 96.0938 74.9219 96.0938 75.7812V89.8438C96.0938 90.7031 95.3906 91.4062 94.5312 91.4062Z" fill="#BDE5EC"/>
<path d="M92.9688 88.2812V77.3438H70.3125V88.2812H92.9688Z" fill="#F7F7EB"/>
<path d="M75.0101 88.2711V77.3336H70.3226V88.2711H75.0101Z" fill="#E44450"/>
<path d="M65.625 88.2812H67.1875V77.3438H65.625C64.7656 77.3438 64.0625 78.0469 64.0625 78.9062V86.7188C64.0625 87.5781 64.7656 88.2812 65.625 88.2812Z" fill="#BDE5EC"/>
<path d="M83.9844 78.5156L83.0469 83.3594L82.0312 81.6406H83.4375H85.8594L84.5312 83.3594L81.6406 86.875L82.4219 82.3438L83.4375 83.9844H82.0312H79.6094L80.9375 82.3438L83.9844 78.5156Z" fill="#BDE5EC"/>
</svg>
