<svg width="100" height="100" viewBox="0 0 100 100" fill="none" xmlns="http://www.w3.org/2000/svg">
<path d="M32.8125 71.0938C25.7812 79.6875 20.3125 85.9375 19.5312 100C26.5625 100 70.3125 100 70.3125 100C68.8281 94.7656 62.5781 87.9688 56.25 79.6875L36.7188 67.9688L32.8125 71.0938Z" fill="#BDE5EC"/>
<path d="M70 19.2187C72.8906 27.0312 68.125 32.8125 67.1875 34.4531C66.25 36.0938 45.7031 50.4687 45.3906 59.1406C45.0781 67.8125 46.9531 68.4375 46.9531 68.4375C46.9531 68.4375 41.4844 69.8438 37.6562 73.5156C24.8438 85.8594 15 76.875 10.9375 69.6094C17.9687 57.1094 4.92188 30.1562 22.0312 13.0469C36.4062 -1.40625 63.2031 0.468748 70 19.2187Z" fill="#892E1D"/>
<path d="M55.0781 59.6875C55.0781 59.6875 54.375 76.5625 56.25 79.6875C43.75 83.5938 37.6563 73.4375 37.6563 73.4375C37.6563 73.4375 42.1875 69.5313 36.9531 43.4375C53.2031 50.9375 55.0781 59.6875 55.0781 59.6875Z" fill="#FFC298"/>
<path d="M54.9219 66.7969C54.9219 62.8906 55.0782 59.6875 55.0782 59.6875C55.0782 59.6875 41.0938 49.8437 41.4063 52.8125C41.9532 58.75 46.6407 64.1406 54.9219 66.7969Z" fill="#E1927A"/>
<path d="M66.25 23.5156C68.125 28.5156 66.6406 30.3125 67.8906 36.6406C68.75 41.25 70 46.25 71.875 47.8125C70 50.9375 66.25 50.9375 66.25 50.9375C66.25 50.9375 66.0937 65.625 55.0781 63.4375C39.5312 60.3125 35.7812 44.7656 35.7812 44.7656C35.7812 44.7656 30.7812 49.1406 28.9062 44.1406C27.0312 39.1406 31.4062 31.0938 36.4062 37.8906C37.0312 29.7656 44.2187 26.3281 48.8281 23.5938C61.3281 16.0938 64.4531 18.5938 66.25 23.5156Z" fill="#FFC298"/>
<path d="M66.25 23.5156C68.125 28.5156 66.6406 30.3125 67.8906 36.6406C68.75 41.25 70 46.25 71.875 47.8125C70 50.9375 66.25 50.9375 66.25 50.9375C66.25 50.9375 66.0937 65.625 55.0781 63.4375C39.5312 60.3125 35.7812 44.7656 35.7812 44.7656C35.7812 44.7656 30.7812 49.1406 28.9062 44.1406C27.0312 39.1406 31.4062 31.0938 36.4062 37.8906C37.0312 29.7656 44.2187 26.3281 48.8281 23.5938C61.3281 16.0938 64.4531 18.5938 66.25 23.5156Z" fill="#FFC298"/>
<path d="M67.1875 34.375C67.3438 34.375 67.4219 34.375 67.5 34.375C66.9531 29.7656 67.8125 27.8125 66.25 23.5156C64.375 18.5156 61.25 16.0156 48.8281 23.5156C44.6094 26.0156 37.8906 31.1719 36.4062 37.8125C40.3906 37.3438 58.2031 34.7656 67.1875 34.375Z" fill="url(#paint0_linear)"/>
<path d="M33.9063 32.2656C35.2344 34.0625 36.4063 37.8906 36.4063 37.8906C36.4063 37.8906 54.4532 35.3906 55.7032 23.5938C58.2032 25.4688 58.2032 29.8438 58.2032 29.8438C58.2032 29.8438 65.0782 29.2188 66.3282 23.5938C70.625 4.0625 38.9063 11.7969 33.9063 17.3438C28.9063 22.8906 32.0313 29.7656 33.9063 32.2656Z" fill="#892E1D"/>
<path d="M33.2031 38.5156C33.125 39.0625 32.9688 39.4531 32.9688 39.8437C32.8906 40.2344 32.8906 40.5469 32.8125 40.8594C32.8125 41.1719 32.8125 41.4844 32.8125 41.875C32.8125 42.1094 32.8906 42.2656 32.8906 42.5C32.8906 42.7344 32.9688 42.9687 32.9688 43.2812V43.3594C32.9688 43.5937 32.7344 43.8281 32.5 43.8281C32.4219 43.8281 32.4219 43.8281 32.3438 43.8281C32.0313 43.75 31.7969 43.5937 31.5625 43.3594C31.3281 43.125 31.0937 42.9687 30.9375 42.6562C30.625 42.0312 30.4688 41.4062 30.4688 40.7031C30.4688 40 30.7813 39.375 31.1719 38.8281C31.5625 38.3594 32.1094 37.9687 32.7344 37.8906C32.9688 37.8125 33.2031 37.9687 33.2031 38.2031C33.2031 38.2812 33.2031 38.2812 33.2031 38.3594V38.5156Z" fill="#E1927A"/>
<path d="M48.75 44.2188C47.8125 45.1562 46.1719 45.1562 45.2344 44.2188C44.4531 43.4375 44.2969 42.2656 44.7656 41.25L46.9531 37.1875L49.1406 41.25C49.6875 42.2656 49.5312 43.4375 48.75 44.2188ZM55.5469 39.2188C54.6094 40.1563 52.9687 40.1563 52.0312 39.2188C51.25 38.4375 51.0937 37.2656 51.5625 36.25L53.75 32.1875L55.9375 36.25C56.4844 37.2656 56.3281 38.4375 55.5469 39.2188Z" fill="#2652E4"/>
<path d="M85.9375 39.8438C90.2522 39.8438 93.75 36.346 93.75 32.0312C93.75 27.7165 90.2522 24.2188 85.9375 24.2188C81.6228 24.2188 78.125 27.7165 78.125 32.0312C78.125 36.346 81.6228 39.8438 85.9375 39.8438Z" fill="#BDE5EC"/>
<path d="M85.9375 9.21875V31.25" stroke="#BDE5EC" stroke-width="14" stroke-miterlimit="10" stroke-linecap="round" stroke-linejoin="round"/>
<path d="M85.9375 9.21875V31.25" stroke="white" stroke-width="6" stroke-miterlimit="10" stroke-linecap="round"/>
<path d="M85.9375 15V31.25" stroke="#E44450" stroke-width="6" stroke-miterlimit="10"/>
<path d="M85.9375 36.7188C88.5263 36.7188 90.625 34.6201 90.625 32.0312C90.625 29.4424 88.5263 27.3438 85.9375 27.3438C83.3487 27.3438 81.25 29.4424 81.25 32.0312C81.25 34.6201 83.3487 36.7188 85.9375 36.7188Z" fill="#E44450"/>
<defs>
<linearGradient id="paint0_linear" x1="52.0469" y1="34.6133" x2="50.9234" y2="25.0617" gradientUnits="userSpaceOnUse">
<stop stop-color="#E44450" stop-opacity="0"/>
<stop offset="1" stop-color="#E44450"/>
</linearGradient>
</defs>
</svg>
