<?xml version="1.0" encoding="iso-8859-1"?>
<!-- Generator: Adobe Illustrator 18.0.0, SVG Export Plug-In . SVG Version: 6.00 Build 0)  -->
<!DOCTYPE svg PUBLIC "-//W3C//DTD SVG 1.1//EN" "http://www.w3.org/Graphics/SVG/1.1/DTD/svg11.dtd">
<svg version="1.1" id="Capa_1" xmlns="http://www.w3.org/2000/svg" xmlns:xlink="http://www.w3.org/1999/xlink" x="0px" y="0px"
	 viewBox="0 0 276.983 276.983" style="enable-background:new 0 0 276.983 276.983;" xml:space="preserve">
<path d="M249.347,27.519c-1.455-1.549-36.164-37.79-84.949-24.658c-21.591,5.811-36.555,20.793-45.697,42.943
	c-4.789,11.603-18.869,13.455-34.636,13.741c-4.389,0.08-8.712,0.905-11.923-2.089c-3.211-2.994-4.352-7.598-2.916-11.746
	c2.898-8.373,6.599-14.573,9.201-18.308c1.695-2.433,1.336-5.748-0.848-7.755l-6.227-5.723l-4.745-4.423
	c-1.337-1.246-3.173-1.806-4.978-1.519c-1.805,0.287-3.376,1.39-4.262,2.989c-4.619,8.344-12.081,22.394-15.314,28.593
	C36.235,50.719,28.835,68.517,26.468,87.42c-4.222,33.718-3.663,53.866,4.446,75.218c29.014,76.391,89.852,126.848,135.042,111.638
	c45.19-15.21,53.294-112.303,32.455-174.22c-6.067-18.026-21.888-28.232-43.41-34.521c-3.416-0.998-6.19-3.5-7.539-6.793
	c-1.348-3.294-1.129-7.028,0.609-10.135c4.841-8.653,12.254-15.871,23.549-18.911c32.472-8.742,56.503,15.841,57.461,16.84
	c5.251,5.595,14.044,5.876,19.641,0.624C254.319,41.908,254.598,33.115,249.347,27.519z M83.944,202.4
	c-1.279,1.163-2.885,1.737-4.488,1.737c-1.813,0-3.618-0.734-4.935-2.18c-27.376-30.075-34.365-77.508-34.648-79.513
	c-0.517-3.646,2.02-7.022,5.668-7.539c3.637-0.524,7.019,2.018,7.539,5.663c0.064,0.451,6.735,45.417,31.307,72.41
	C86.866,195.702,86.667,199.92,83.944,202.4z M96.128,224.516c-3.888,0-7.04-3.152-7.04-7.04c0-3.888,3.152-7.04,7.04-7.04
	c3.888,0,7.04,3.152,7.04,7.04C103.168,221.364,100.016,224.516,96.128,224.516z"/>
<g>
</g>
<g>
</g>
<g>
</g>
<g>
</g>
<g>
</g>
<g>
</g>
<g>
</g>
<g>
</g>
<g>
</g>
<g>
</g>
<g>
</g>
<g>
</g>
<g>
</g>
<g>
</g>
<g>
</g>
</svg>
