<?xml version="1.0" encoding="UTF-8" standalone="no"?>
<svg
   xmlns:dc="http://purl.org/dc/elements/1.1/"
   xmlns:cc="http://creativecommons.org/ns#"
   xmlns:rdf="http://www.w3.org/1999/02/22-rdf-syntax-ns#"
   xmlns:svg="http://www.w3.org/2000/svg"
   xmlns="http://www.w3.org/2000/svg"
   xmlns:xlink="http://www.w3.org/1999/xlink"
   xmlns:sodipodi="http://sodipodi.sourceforge.net/DTD/sodipodi-0.dtd"
   xmlns:inkscape="http://www.inkscape.org/namespaces/inkscape"
   inkscape:version="1.0beta2 (2b71d25, 2019-12-03)"
   sodipodi:docname="nausea.svg"
   id="svg865"
   version="1.1"
   fill="none"
   viewBox="0 0 100 100"
   height="100"
   width="100">
  <metadata
     id="metadata871">
    <rdf:RDF>
      <cc:Work
         rdf:about="">
        <dc:format>image/svg+xml</dc:format>
        <dc:type
           rdf:resource="http://purl.org/dc/dcmitype/StillImage" />
      </cc:Work>
    </rdf:RDF>
  </metadata>
  <defs
     id="defs869">
    <linearGradient
       id="linearGradient2932"
       inkscape:collect="always">
      <stop
         id="stop2928"
         offset="0"
         style="stop-color:#34c256;stop-opacity:1;" />
      <stop
         id="stop2930"
         offset="1"
         style="stop-color:#34c256;stop-opacity:0;" />
    </linearGradient>
    <radialGradient
       gradientUnits="userSpaceOnUse"
       gradientTransform="matrix(1,0,0,1.0778316,0,-3.5443332)"
       r="20.660436"
       fy="45.538471"
       fx="59.263435"
       cy="45.538471"
       cx="59.263435"
       id="radialGradient2934"
       xlink:href="#linearGradient2932"
       inkscape:collect="always" />
  </defs>
  <sodipodi:namedview
     inkscape:current-layer="svg865"
     inkscape:window-maximized="0"
     inkscape:window-y="23"
     inkscape:window-x="0"
     inkscape:cy="50"
     inkscape:cx="50"
     inkscape:zoom="6.72"
     showgrid="false"
     id="namedview867"
     inkscape:window-height="956"
     inkscape:window-width="1335"
     inkscape:pageshadow="2"
     inkscape:pageopacity="0"
     guidetolerance="10"
     gridtolerance="10"
     objecttolerance="10"
     borderopacity="1"
     inkscape:document-rotation="0"
     bordercolor="#666666"
     pagecolor="#ffffff" />
  <path
     id="path833"
     fill="#FFC298"
     d="M58.5938 83.5938L67.1875 85.9375L71.4844 94.5312L70.7031 100H63.5938L58.5938 83.5938Z" />
  <path
     id="path835"
     fill="#BDE5EC"
     d="M36.875 68.9062C28.2031 75.8594 21.6406 86.4062 17.9688 100C25.7812 100 66.4062 100 66.4062 100C64.0625 93.75 60.9375 89.8437 58.0469 82.1094L41.3281 66.6406L36.875 68.9062Z" />
  <path
     id="path837"
     fill="#892E1D"
     d="M83.9062 25.7031C85.0781 33.9062 79.2969 38.5938 78.0469 40C76.7969 41.4062 53.75 51.4062 51.6406 59.7656C49.5312 68.125 51.25 69.1406 51.25 69.1406C51.25 69.1406 45.625 69.375 41.0938 72.1875C26.0156 81.6406 18.2031 70.8594 15.7031 62.8906C25.7812 49.2188 17.9688 23.125 38.2031 9.84375C55.1562 -1.25 81.0156 6.01562 83.9062 25.7031Z" />
  <path
     id="path839"
     fill="#FFC298"
     d="M61.0156 62.2656C61.0156 62.2656 56.875 78.6719 58.0469 82.1094C45 83.3594 41.4063 74.2188 41.1719 72.1875C44.5313 68.75 46.0938 60.9375 46.6406 42.7344C60.9375 53.3594 61.0156 62.2656 61.0156 62.2656Z" />
  <path
     id="path841"
     fill="#E1927A"
     d="M51.5624 53.125C50.9374 58.9062 51.6406 67.1875 58.9062 71.5625C59.8437 66.7969 60.9375 62.2656 60.9375 62.2656C60.9375 62.2656 51.9531 50.1562 51.5624 53.125Z" />
  <path
     style="fill-opacity:1;fill:#ffc298"
     id="path843"
     fill="#FFC298"
     d="M79.375 29.2188C80.1562 34.4531 78.4375 35.9375 78.2812 42.4219C78.2031 47.1094 78.4375 52.2656 79.9218 54.1406C77.4218 56.7969 73.8281 56.0156 73.8281 56.0156C73.8281 56.0156 73.4375 57.9688 72.3437 60.1563C70.2343 59.7656 66.4843 58.3594 66.4843 58.3594C66.4843 58.3594 67.8125 62.1094 70 63.9063C67.8906 66.3281 64.6875 69.0625 60.2343 67.1875C45.625 60.9375 45.2343 43.6719 45.2343 43.6719C45.2343 43.6719 39.4531 46.9531 38.6718 41.6406C37.8906 36.3281 43.75 29.375 47.2656 37.1094C49.5312 29.2969 57.2656 27.4219 62.4218 25.625C76.0156 20.8594 78.5156 23.9844 79.375 29.2188Z" />
  <path
     inkscape:connector-curvature="0"
     d="m 79.377071,29.216068 c 0.7812,5.234301 -0.9375,6.718701 -1.0938,13.203101 -0.0781,4.6875 0.1563,9.8437 1.6406,11.7187 -2.5,2.6563 -6.0937,1.875 -6.0937,1.875 0,0 -0.3906,1.9532 -1.4844,4.1407 -2.1094,-0.3907 -5.8594,-1.7969 -5.8594,-1.7969 0,0 1.3282,3.75 3.5157,5.5469 -2.1094,2.4218 -5.3125,5.1562 -9.7657,3.2812 -14.609299,-6.25 -14.999999,-23.5156 -14.999999,-23.5156 0,0 -5.7812,3.2812 -6.5625,-2.0313 -0.7812,-5.3125 5.0782,-12.265601 8.5938,-4.5312 2.265599,-7.812501 9.999999,-9.687501 15.156199,-11.484401 13.5938,-4.7656 16.0938,-1.6406 16.9532,3.5938 z"
     fill="#FFC298"
     id="path843-7"
     style="fill:url(#radialGradient2934);fill-opacity:1;opacity:0.84565916" />
  <path
     id="path845"
     fill="#892E1D"
     d="M45.8594 31.1719C46.7969 33.2031 47.1875 37.1875 47.1875 37.1875C47.1875 37.1875 65.3906 38.4375 68.9844 27.1094C71.0156 29.4531 70.1562 33.75 70.1562 33.75C70.1562 33.75 78.2812 36.4063 80.7031 31.1719C88.9062 12.9688 55 12.1094 48.9844 16.5625C42.9687 21.0156 44.5312 28.2813 45.8594 31.1719Z" />
  <path
     id="path847"
     fill="#E1927A"
     d="M43.9063 37.1094C43.75 37.5781 43.5157 37.9687 43.3594 38.3594C43.2032 38.75 43.125 38.9844 43.0469 39.2969C42.9688 39.6094 42.8907 39.9219 42.8907 40.3125C42.8125 40.4687 42.8907 40.7031 42.8125 40.9375C42.8125 41.1719 42.8125 41.4063 42.7344 41.7188V41.7969C42.6563 42.0313 42.4219 42.1875 42.1875 42.1094C42.1094 42.1094 42.1094 42.1094 42.0313 42.0312C41.7969 41.875 41.5625 41.6406 41.3282 41.4063C41.1719 41.1719 40.9375 40.9375 40.8594 40.625C40.625 40.0781 40.5469 39.375 40.7813 38.6719C40.9375 37.9688 41.3282 37.4219 41.7969 37.0313C42.2657 36.6406 42.8907 36.4062 43.5938 36.4062C43.8282 36.4062 43.9844 36.6406 43.9844 36.875C43.9844 36.9531 43.9844 36.9531 43.9844 37.0313L43.9063 37.1094Z" />
  <path
     id="path859"
     fill="#E1927A"
     d="M60.3906 87.6562L64.2969 89.2188L65.9375 92.4219L63.6719 94.8438L60.3906 87.6562Z" />
  <path
     id="path861"
     fill="#FFC298"
     d="M56.7187 88.2031C57.1875 88.75 57.8906 89.2969 58.5156 89.7656C59.1406 90.2344 59.8437 90.7031 60.4687 91.0156C61.1719 91.4063 61.7969 91.6406 62.5 91.7969C63.2031 91.9531 63.8281 92.0313 64.4531 92.0313C66.0156 92.0313 67.2656 93.3594 67.1875 94.8438C67.1875 96.4063 65.8594 97.6563 64.375 97.5781C64.1406 97.5781 63.9844 97.5781 63.75 97.5H63.6719C62.5 97.1875 61.4844 96.7969 60.5469 96.25C59.6094 95.7031 58.75 95.0781 57.9687 94.4531C57.1875 93.75 56.4844 93.0469 55.8594 92.2656C55.2344 91.4844 54.6875 90.7813 54.1406 89.8438C53.6719 89.0625 53.9844 88.125 54.6875 87.7344C55.3125 87.3438 56.0937 87.5 56.6406 87.9688L56.7187 88.2031Z" />
  <path
     id="path863"
     fill="#FFC298"
     d="M60.2344 96.25C61.7188 97.7344 61.8751 100 61.8751 100H70.7032L66.4844 89.1406C66.4844 89.1406 62.4219 88.4375 63.6719 88.9844C64.9219 89.4531 64.5313 92.4219 61.7188 91.6406C59.9219 91.0938 58.9063 94.7656 60.2344 96.25Z" />
</svg>
