<?xml version="1.0" encoding="iso-8859-1"?>
<!-- Generator: Adobe Illustrator 19.0.0, SVG Export Plug-In . SVG Version: 6.00 Build 0)  -->
<svg version="1.1" id="Layer_1" xmlns="http://www.w3.org/2000/svg" xmlns:xlink="http://www.w3.org/1999/xlink" x="0px" y="0px"
	 viewBox="0 0 512.001 512.001" style="enable-background:new 0 0 512.001 512.001;" xml:space="preserve">
<g>
	<g>
		<path d="M256.001,0C114.842,0,0.001,114.841,0.001,256.001s114.841,256.001,256.001,256.001
			c141.158,0,255.999-114.841,255.999-256.001S397.159,0,256.001,0z M256.001,493.701c-131.069,0-237.702-106.631-237.702-237.7
			S124.932,18.299,256.001,18.299c131.068,0,237.7,106.632,237.7,237.702S387.069,493.701,256.001,493.701z"/>
	</g>
</g>
<g>
	<g>
		<path d="M367.204,382.867c-20.179,0-36.596-16.417-36.596-36.596c0-20.179,16.417-36.596,36.596-36.596
			c5.053,0,9.15-4.097,9.15-9.15s-4.097-9.15-9.15-9.15c-27.151,0-49.748,19.818-54.118,45.745H198.917
			c-4.37-25.927-26.967-45.745-54.118-45.745c-5.053,0-9.15,4.097-9.15,9.15s4.097,9.15,9.15,9.15
			c20.179,0,36.596,16.417,36.596,36.596c0,20.179-16.417,36.596-36.596,36.596c-5.053,0-9.15,4.097-9.15,9.15s4.097,9.15,9.15,9.15
			c27.151,0,49.748-19.818,54.118-45.745h114.169c4.37,25.927,26.967,45.745,54.118,45.745c5.053,0,9.15-4.097,9.15-9.15
			S372.257,382.867,367.204,382.867z"/>
	</g>
</g>
<g>
	<g>
		<path d="M146.725,203.59c-18.666,0-33.852,15.186-33.852,33.852c0,18.666,15.186,33.852,33.852,33.852
			c18.666,0,33.852-15.186,33.852-33.852C180.577,218.775,165.391,203.59,146.725,203.59z"/>
	</g>
</g>
<g>
	<g>
		<path d="M365.277,203.59c-18.666,0-33.852,15.186-33.852,33.852c0,18.666,15.186,33.852,33.852,33.852
			s33.852-15.186,33.852-33.852C399.129,218.775,383.942,203.59,365.277,203.59z"/>
	</g>
</g>
<g>
	<g>
		<path d="M179.904,123.307c-1.235-4.901-6.208-7.872-11.108-6.636c-4.901,1.235-7.871,6.207-6.636,11.108
			c2.711,10.756-0.354,21.86-8.198,29.704c-7.843,7.844-18.947,10.906-29.704,8.198c-4.902-1.238-9.873,1.736-11.108,6.636
			c-1.235,4.901,1.737,9.873,6.636,11.108c4.089,1.031,8.208,1.535,12.281,1.535c12.923,0,25.375-5.077,34.834-14.537
			C179.343,157.981,184.203,140.367,179.904,123.307z"/>
	</g>
</g>
<g>
	<g>
		<path d="M398.851,172.316c-1.235-4.901-6.206-7.871-11.108-6.636c-10.756,2.709-21.86-0.354-29.704-8.198
			c-7.844-7.843-10.907-18.947-8.198-29.704c1.235-4.901-1.736-9.873-6.636-11.108c-4.899-1.237-9.873,1.736-11.108,6.636
			c-4.299,17.061,0.561,34.673,13.002,47.115c9.461,9.461,21.91,14.538,34.834,14.537c4.072,0,8.193-0.504,12.281-1.535
			C397.115,182.189,400.086,177.217,398.851,172.316z"/>
	</g>
</g>
<g>
	<g>
		<path d="M289.287,375.478c-21.465-7.728-45.107-7.728-66.571,0c-4.754,1.712-7.221,6.954-5.509,11.708
			c1.712,4.754,6.954,7.221,11.708,5.509c17.467-6.289,36.706-6.289,54.174,0c1.024,0.368,2.07,0.543,3.099,0.543
			c3.749,0,7.266-2.322,8.609-6.052C296.508,382.431,294.041,377.191,289.287,375.478z"/>
	</g>
</g>
<g>
	<g>
		<g>
			<path d="M381.937,226.37c-3.178-8.014-15.219-7.245-17.357,1.1c-1.454,5.674,3.03,11.383,8.86,11.356
				c2.103-0.01,4.206-0.701,5.829-2.045C382.219,234.339,383.348,229.931,381.937,226.37z"/>
			<path d="M156.937,220.759c-1.17,0.244-2.295,0.709-3.294,1.366c-2.507,1.652-4.062,4.62-4.062,7.612
				c0,2.403,0.976,4.77,2.672,6.466c1.692,1.692,4.086,2.684,6.478,2.684c2.403,0,4.758-0.976,6.466-2.684
				c1.708-1.696,2.684-4.062,2.684-6.466c0-1.796-0.562-3.59-1.549-5.087C164.347,221.64,160.47,220.022,156.937,220.759z"/>
		</g>
	</g>
</g>
<g>
</g>
<g>
</g>
<g>
</g>
<g>
</g>
<g>
</g>
<g>
</g>
<g>
</g>
<g>
</g>
<g>
</g>
<g>
</g>
<g>
</g>
<g>
</g>
<g>
</g>
<g>
</g>
<g>
</g>
</svg>
