<svg width="100" height="100" viewBox="0 0 100 100" fill="none" xmlns="http://www.w3.org/2000/svg">
<path d="M54.6 33.3334L54.0166 43.3334L52.1666 75L51.7666 81.7666C51.7094 82.6459 50.9811 83.3305 50.1 83.3332H26.5666C25.6856 83.3305 24.9571 82.6457 24.9 81.7666L22.0667 33.3332" fill="#B0D3F0"/>
<path d="M38.3334 28.3334C37.8914 28.3336 37.4674 28.158 37.1547 27.8453C36.8422 27.5328 36.6666 27.1088 36.6666 26.6666V18.0477C36.6633 16.7207 37.1907 15.4475 38.1315 14.5117L45.4883 7.15508C46.1409 6.51426 47.1877 6.51914 47.8344 7.16563C48.4811 7.81231 48.4858 8.85918 47.845 9.51172L40.4883 16.8686C40.175 17.1809 39.9993 17.6053 40 18.0479V26.6668C40.0002 27.1088 39.8246 27.5328 39.512 27.8455C39.1995 28.1578 38.7754 28.3334 38.3334 28.3334Z" fill="#7F8C8D"/>
<path d="M25 33.3334H21.6667C19.8256 33.3334 18.3333 31.841 18.3333 30C18.3333 28.159 19.8256 26.6666 21.6667 26.6666H55C56.8411 26.6666 58.3334 28.159 58.3334 30C58.3334 31.841 56.8411 33.3334 55 33.3334H51.6666" fill="#B0D3F0"/>
<path d="M90 59.1666C90.0033 58.0606 89.5654 56.9986 88.7834 56.2166C88.0012 55.4344 86.9395 54.9965 85.8334 55H85C85.9193 54.9973 86.6641 54.2527 86.6666 53.3334C86.6623 47.8123 82.1877 43.3377 76.6666 43.3334H46.8666C41.3455 43.3379 36.8711 47.8123 36.8666 53.3334C36.8693 54.2527 37.6139 54.9973 38.5332 55H37.6998C35.3986 55 33.5332 56.8654 33.5332 59.1666C33.5332 61.4678 35.3986 63.3332 37.6998 63.3332H38.5332C37.6139 63.3359 36.8693 64.0805 36.8666 64.9998C36.8711 70.5209 41.3455 74.9953 46.8666 74.9998H76.6666C82.1877 74.9955 86.6623 70.5209 86.6666 64.9998C86.6639 64.0805 85.9193 63.3357 85 63.3332H85.8334C88.1342 63.3324 89.9992 61.4676 90 59.1666Z" fill="#805333"/>
<path d="M86.6674 53.3334C86.6646 54.2527 85.9201 54.9975 85.0008 55H38.5342C37.6148 54.9973 36.8703 54.2527 36.8676 53.3334C36.872 47.8123 41.3465 43.3379 46.8676 43.3334H76.6676C82.1885 43.3377 86.6631 47.8123 86.6674 53.3334Z" fill="#CB8252"/>
<path d="M86.6666 65C86.6623 70.5211 82.1877 74.9957 76.6666 75H46.8666C41.3455 74.9955 36.8711 70.5211 36.8666 65C36.8693 64.0807 37.6138 63.3361 38.5332 63.3334H85C85.9193 63.3359 86.664 64.0807 86.6666 65Z" fill="#CB8252"/>
<path d="M50 100C22.3857 100 0 77.6143 0 50C0 22.3857 22.3857 0 50 0C77.6143 0 100 22.3857 100 50C99.9688 77.6014 77.6014 99.9688 50 100ZM50 3.3334C24.2268 3.3334 3.3334 24.2268 3.3334 50C3.3334 75.7732 24.2268 96.6666 50 96.6666C75.7732 96.6666 96.6666 75.7732 96.6666 50C96.6377 24.2387 75.7613 3.3623 50 3.3334Z" fill="#CC4B4C"/>
<path d="M84.1838 85.8496C83.7416 85.8502 83.3176 85.6744 83.0055 85.3613L14.6387 16.9955C13.9898 16.3443 13.9906 15.2908 14.6406 14.6408C15.2906 13.9908 16.3441 13.9898 16.9953 14.6389L85.3619 83.0047C85.8385 83.4813 85.9809 84.1981 85.7231 84.8207C85.4652 85.4434 84.8578 85.8494 84.1838 85.8496Z" fill="#CC4B4C"/>
</svg>
