<svg width="100" height="100" viewBox="0 0 100 100" fill="none" xmlns="http://www.w3.org/2000/svg">
<path d="M30.625 68.9062C21.9531 75.8594 15.3906 86.4062 11.7188 100C19.5312 100 60.1562 100 60.1562 100C57.8125 93.75 54.6875 89.8437 51.7969 82.1094L35.0781 66.6406L30.625 68.9062Z" fill="#BDE5EC"/>
<path d="M77.6562 25.7031C78.8281 33.9062 73.0469 38.5938 71.7969 40C70.5469 41.4062 47.5 51.4062 45.3906 59.7656C43.2812 68.125 45 69.1406 45 69.1406C45 69.1406 39.375 69.375 34.8438 72.1875C19.7656 81.6406 11.9531 70.8594 9.45312 62.8906C19.5312 49.2188 11.7188 23.125 31.9531 9.84375C48.9062 -1.25 74.7656 6.01562 77.6562 25.7031Z" fill="#892E1D"/>
<path d="M54.7656 62.2656C54.7656 62.2656 50.625 78.6719 51.7969 82.1094C38.75 83.3594 35.1563 74.2188 34.9219 72.1875C38.2813 68.75 39.8438 60.9375 40.3906 42.7344C54.6875 53.3594 54.7656 62.2656 54.7656 62.2656Z" fill="#FFC298"/>
<path d="M42.7344 52.8125C42.1094 58.5937 45.3906 67.1875 52.6563 71.5625C53.5938 66.7969 54.6875 62.2656 54.6875 62.2656C54.6875 62.2656 43.0469 49.8437 42.7344 52.8125Z" fill="#E1927A"/>
<path d="M66.0156 60.1563C64.6875 56.875 58.5938 56.25 58.5938 56.25C58.5938 56.25 59.375 61.7188 63.6719 63.9063" fill="#FFC298"/>
<path d="M73.125 29.2187C73.9062 34.4531 72.1875 35.9375 72.0312 42.4219C71.9531 47.1094 72.1875 52.2656 73.6718 54.1406C71.1718 56.7969 67.5781 56.0156 67.5781 56.0156C67.5781 56.0156 67.1875 57.9687 66.0937 60.1562C64.4531 58.8281 58.6718 56.25 58.6718 56.25C58.6718 56.25 61.3281 61.0937 63.75 63.9062C61.6406 66.3281 58.4375 69.0625 53.9843 67.1875C39.375 60.9375 38.9843 43.6719 38.9843 43.6719C38.9843 43.6719 33.2031 46.9531 32.4218 41.6406C31.6406 36.3281 37.5 29.375 41.0156 37.1094C43.2812 29.2969 51.0156 27.4219 56.1718 25.625C69.7656 20.8594 72.2656 23.9844 73.125 29.2187Z" fill="#FFC298"/>
<path d="M39.6094 31.1719C40.5469 33.2031 40.9375 37.1875 40.9375 37.1875C40.9375 37.1875 59.1406 38.4375 62.7344 27.1094C64.7656 29.4531 63.9062 33.75 63.9062 33.75C63.9062 33.75 70.7031 34.5313 73.125 29.2969C81.3281 11.0938 48.75 12.1094 42.7344 16.5625C36.7187 21.0156 38.2812 28.2813 39.6094 31.1719Z" fill="#892E1D"/>
<path d="M37.6563 37.1094C37.5 37.5781 37.2657 37.9687 37.1094 38.3594C36.9532 38.75 36.875 38.9844 36.7969 39.2969C36.7188 39.6094 36.6407 39.9219 36.6407 40.3125C36.5625 40.4687 36.6407 40.7031 36.5625 40.9375C36.5625 41.1719 36.5625 41.4063 36.4844 41.7188V41.7969C36.4063 42.0313 36.1719 42.1875 35.9375 42.1094C35.8594 42.1094 35.8594 42.1094 35.7813 42.0312C35.5469 41.875 35.3125 41.6406 35.0782 41.4063C34.9219 41.1719 34.6875 40.9375 34.6094 40.625C34.375 40.0781 34.2969 39.375 34.5313 38.6719C34.6875 37.9688 35.0782 37.4219 35.5469 37.0313C36.0157 36.6406 36.6407 36.4062 37.3438 36.4062C37.5782 36.4062 37.7344 36.6406 37.7344 36.875C37.7344 36.9531 37.7344 36.9531 37.7344 37.0313L37.6563 37.1094Z" fill="#E1927A"/>
<path d="M74.9219 58.8281L82.3438 66.4844L81.0938 73.3594L77.8125 79.5312L70.9375 75.5469L74.9219 58.8281Z" fill="#FFC298"/>
<path d="M70.9375 81.7187L69.4531 100H81.4062L79.6875 81.0938L70.9375 81.7187Z" fill="#BDE5EC"/>
<path d="M73.9844 62.7344L76.9531 66.5625L76.7187 70.1562L72.1875 68.9844L73.9844 62.7344Z" fill="#E1927A"/>
<path d="M69.2969 51.25C69.2969 51.25 61.875 67.8125 58.5938 72.4219C67.9688 77.7344 69.2187 77.5781 69.2187 77.5781C69.2187 77.5781 75.4688 66.3281 80.0781 56.1719C76.9531 55.0781 69.2969 51.25 69.2969 51.25Z" fill="#2652E4"/>
<path d="M71.0156 61.875C71.1719 62.5781 71.4844 63.4375 71.7188 64.1406C72.0312 64.8437 72.3437 65.625 72.8125 66.25C73.2031 66.875 73.6719 67.5 74.1406 67.9688C74.6094 68.4375 75.1562 68.8281 75.7031 69.1406C77.0312 69.9219 77.4219 71.6406 76.6406 72.9688C75.8594 74.2969 74.1406 74.6875 72.8125 73.9063C72.6562 73.8281 72.4219 73.6719 72.3437 73.5156C71.4844 72.7344 70.7812 71.7969 70.2344 70.8594C69.6875 69.9219 69.2187 68.9844 68.9062 67.9688C68.5937 67.0313 68.3594 66.0156 68.2031 65.0781C68.0469 64.0625 67.9688 63.2031 67.9688 62.1094C67.9688 61.25 68.6719 60.5469 69.5312 60.5469C70.2344 60.5469 70.8594 61.0156 71.0937 61.7188L71.0156 61.875Z" fill="#FFC298"/>
<path d="M69.9219 70.625C70.9376 73.6719 70.6251 77.9688 70.6251 77.9688L77.0313 79.1406L78.9063 67.6563C78.9063 67.6563 75.7032 65 76.5626 66.0938C77.4219 67.1875 75.5469 69.5313 73.5157 67.4219C72.1876 66.0156 69.3751 68.75 69.9219 70.625Z" fill="#FFC298"/>
<path d="M80.1562 86.25L79.6875 81.0938L70.9375 81.7187L70.7031 84.7656L80.1562 86.25Z" fill="#2652E4"/>
<path d="M70.7031 77.9688L80.3125 78.6719L80.9375 84.2188L69.9219 83.6719L70.7031 77.9688Z" fill="#BDE5EC"/>
<path d="M72.5781 82.1875C73.1822 82.1875 73.6719 81.6978 73.6719 81.0938C73.6719 80.4897 73.1822 80 72.5781 80C71.9741 80 71.4844 80.4897 71.4844 81.0938C71.4844 81.6978 71.9741 82.1875 72.5781 82.1875Z" fill="white"/>
</svg>
